
<svg width="599" height="156" viewBox="0 0 599 156" fill="none" xmlns="http://www.w3.org/2000/svg">
<path d="M150.397 60.2727H132.854V102.176H132.25L103.628 60.2727H88.5004V133H106.078V91.0256H106.54L135.482 133H150.397V60.2727ZM161.45 133H209.283V118.724H179.028V60.2727H161.45V133ZM230.35 133H247.254L260.358 88.8949H260.926L274.029 133H290.968L312.098 60.2727H292.708L281.7 108.036H281.096L268.561 60.2727H252.723L240.187 107.929H239.583L228.61 60.2727H209.186L230.35 133ZM347.059 133H359.843L362.684 115.67H372.307L374.473 102.886H364.779L366.838 90.3864H376.462L378.628 77.6023H368.934L371.775 60.2727H358.99L356.15 77.6023H343.365L346.206 60.2727H333.422L330.581 77.6023H320.958L318.792 90.3864H328.486L326.426 102.886H316.803L314.637 115.67H324.331L321.49 133H334.275L337.115 115.67H349.9L347.059 133ZM339.211 102.886L341.27 90.3864H354.054L351.995 102.886H339.211ZM414.823 134.776C433.857 134.811 445.54 120.749 445.576 96.7429C445.612 72.8793 433.857 59.2784 414.823 59.2784C395.789 59.2784 384.141 72.8438 384.106 96.7429C384.035 120.678 395.789 134.776 414.823 134.776ZM414.823 120.393C407.259 120.393 402.11 112.794 402.181 96.7429C402.217 81.0114 407.295 73.554 414.823 73.554C422.387 73.554 427.465 81.0114 427.501 96.7429C427.536 112.794 422.423 120.393 414.823 120.393ZM483.484 133.994C500.423 133.994 511.716 123.341 511.716 108.355C511.716 94.5057 502.057 84.6335 488.989 84.6335C482.099 84.6335 476.382 87.581 473.967 91.5938H473.541L475.21 74.4418H507.419V60.2727H460.757L457.597 99.4773L473.115 102.389C475.068 99.1222 479.116 97.098 483.378 97.1335C490.054 97.1335 494.812 101.857 494.777 108.852C494.812 115.812 490.125 120.5 483.484 120.5C477.838 120.5 473.186 116.984 472.938 111.622H455.892C456.105 124.69 467.575 133.994 483.484 133.994Z" fill="white"/>
<path d="M143.131 14.2425H153.246V42H159.127V14.2425H169.242V9.27273H143.131V14.2425ZM171.471 42H177.256V27.57C177.256 24.4538 179.605 22.2486 182.785 22.2486C183.76 22.2486 184.975 22.4244 185.47 22.5842V17.2628C184.943 17.1669 184.032 17.103 183.392 17.103C180.58 17.103 178.231 18.701 177.336 21.5455H177.08V17.4545H171.471V42ZM189.313 42H195.098V17.4545H189.313V42ZM192.222 13.9709C194.059 13.9709 195.561 12.5646 195.561 10.8388C195.561 9.09695 194.059 7.6907 192.222 7.6907C190.368 7.6907 188.866 9.09695 188.866 10.8388C188.866 12.5646 190.368 13.9709 192.222 13.9709ZM206.831 9.27273H201.047V42H206.831V9.27273ZM218.565 27.6179C218.565 24.0703 220.77 22.0249 223.87 22.0249C226.906 22.0249 228.696 23.9585 228.696 27.2663V42H234.481V26.3714C234.481 20.4428 231.125 17.1349 226.027 17.1349C222.256 17.1349 219.859 18.8448 218.725 21.6254H218.437V9.27273H212.78V42H218.565V27.6179ZM247.441 42.4954C251.292 42.4954 253.593 40.6896 254.648 38.6282H254.84V42H260.401V25.5724C260.401 19.0845 255.111 17.1349 250.429 17.1349C245.267 17.1349 241.304 19.4361 240.026 23.9105L245.427 24.6776C246.003 22.9996 247.633 21.5614 250.461 21.5614C253.146 21.5614 254.616 22.9357 254.616 25.3487V25.4446C254.616 27.1065 252.874 27.1864 248.543 27.6499C243.781 28.1612 239.227 29.5835 239.227 35.1126C239.227 39.9386 242.759 42.4954 247.441 42.4954ZM248.943 38.2447C246.53 38.2447 244.804 37.142 244.804 35.0167C244.804 32.7955 246.738 31.8686 249.326 31.5011C250.845 31.2933 253.881 30.9098 254.632 30.3026V33.195C254.632 35.9276 252.427 38.2447 248.943 38.2447ZM304.53 9.27273H298.633V31.581H298.345L282.941 9.27273H277.635V42H283.564V19.7077H283.835L299.256 42H304.53V9.27273ZM321.441 42.4794C328.632 42.4794 333.202 37.4137 333.202 29.8232C333.202 22.2166 328.632 17.1349 321.441 17.1349C314.25 17.1349 309.679 22.2166 309.679 29.8232C309.679 37.4137 314.25 42.4794 321.441 42.4794ZM321.473 37.8452C317.494 37.8452 315.544 34.2976 315.544 29.8072C315.544 25.3168 317.494 21.7212 321.473 21.7212C325.388 21.7212 327.337 25.3168 327.337 29.8072C327.337 34.2976 325.388 37.8452 321.473 37.8452ZM347.221 42.4315C351.439 42.4315 353.341 39.9226 354.252 38.1328H354.603V42H360.292V9.27273H354.492V21.5135H354.252C353.373 19.7397 351.567 17.1349 347.237 17.1349C341.564 17.1349 337.105 21.5774 337.105 29.7592C337.105 37.8452 341.436 42.4315 347.221 42.4315ZM348.835 37.6854C345.015 37.6854 343.002 34.3295 343.002 29.7273C343.002 25.157 344.983 21.881 348.835 21.881C352.558 21.881 354.603 24.9652 354.603 29.7273C354.603 34.4893 352.526 37.6854 348.835 37.6854ZM377.323 42.4794C383.044 42.4794 386.975 39.6829 387.998 35.4162L382.597 34.8089C381.814 36.8864 379.896 37.973 377.403 37.973C373.664 37.973 371.187 35.5121 371.139 31.3093H388.238V29.5355C388.238 20.9222 383.06 17.1349 377.02 17.1349C369.988 17.1349 365.402 22.2965 365.402 29.8711C365.402 37.5735 369.924 42.4794 377.323 42.4794ZM371.155 27.4102C371.331 24.2781 373.648 21.6413 377.099 21.6413C380.423 21.6413 382.661 24.0703 382.692 27.4102H371.155ZM396.695 42.3516C398.581 42.3516 400.195 40.7855 400.211 38.8359C400.195 36.9183 398.581 35.3523 396.695 35.3523C394.745 35.3523 393.163 36.9183 393.179 38.8359C393.163 40.7855 394.745 42.3516 396.695 42.3516ZM419.351 9.27273V32.2841C419.335 35.7358 417.737 37.5735 414.892 37.5735C412.24 37.5735 410.466 35.9595 410.418 33.3068H404.521C404.521 39.3473 408.932 42.4474 414.669 42.4474C420.981 42.4474 425.216 38.6122 425.232 32.2841V9.27273H419.351ZM449.449 18.2695H455.154C455.042 12.7404 450.328 8.82528 443.361 8.82528C436.49 8.82528 431.328 12.6925 431.344 18.4773C431.344 23.1754 434.684 25.8761 440.069 27.2663L443.792 28.2251C447.324 29.12 449.657 30.2227 449.673 32.7635C449.657 35.56 447.004 37.4297 443.137 37.4297C439.43 37.4297 436.553 35.7678 436.314 32.332H430.481C430.721 38.8359 435.563 42.4954 443.185 42.4954C451.031 42.4954 455.586 38.5803 455.602 32.8114C455.586 27.1385 450.904 24.5497 445.982 23.3832L442.914 22.6161C440.229 21.9769 437.32 20.8423 437.352 18.1097C437.368 15.6488 439.574 13.843 443.281 13.843C446.813 13.843 449.146 15.489 449.449 18.2695Z" fill="white"/>
</svg>
